<?xml version="1.0" encoding="utf-8"?>
<!-- Generator: Adobe Illustrator 24.1.0, SVG Export Plug-In . SVG Version: 6.00 Build 0)  -->
<svg version="1.1" id="Calque_1" xmlns="http://www.w3.org/2000/svg" xmlns:xlink="http://www.w3.org/1999/xlink" x="0px" y="0px"
	 viewBox="0 0 394.4 127.4" style="enable-background:new 0 0 394.4 127.4;" xml:space="preserve">
<style type="text/css">
	.st0{fill:#1A1334;}
	.st1{fill:#51FFD7;}
</style>
<polygon class="st0" points="75.2,72.5 198.4,69.9 246.2,52.4 246.1,52.4 103.5,61.1 "/>
<polygon class="st0" points="244.1,0.6 1.3,15.5 4.3,65.2 104.4,58.9 247,50.3 "/>
<g>
	<path class="st1" d="M27.3,28.8L40.6,28l0.1,2.3L30.2,31l0.4,7.2l10-0.6l0.1,2.3l-10,0.6l0.4,7.3l10.6-0.6l0.1,2.4l-13.3,0.8
		L27.3,28.8z"/>
	<path class="st1" d="M64.8,48.2l-3.4,0.2l-6.8-8.2l-5.3,9l-3.3,0.2l7-11.2l-8.3-10.4l3.3-0.2l6.7,8.4l5.2-9.2l3.3-0.2l-6.8,11.3
		L64.8,48.2z"/>
	<path class="st1" d="M81.1,27.3c1.3,1.1,2,2.7,2.2,4.7c0.1,2-0.4,3.7-1.6,4.9c-1.2,1.3-3,2-5.3,2.1l-4.3,0.3l0.5,8.3l-2.7,0.2
		l-1.3-21.6l7-0.4C77.9,25.7,79.8,26.2,81.1,27.3z M76.2,36.8c1.5-0.1,2.6-0.5,3.3-1.3c0.7-0.8,1-1.9,1-3.2
		c-0.1-1.3-0.5-2.3-1.3-3.1s-2-1.1-3.5-1l-4.3,0.3L72,37L76.2,36.8z"/>
	<path class="st1" d="M87.6,25.1l13.3-0.8l0.1,2.3l-10.6,0.6l0.4,7.2l10-0.6l0.1,2.3l-10,0.6l0.4,7.3l10.6-0.6l0.1,2.4l-13.3,0.8
		L87.6,25.1z M97.3,16.6l-7.8,5.1l0.9,1.7l8.1-4.4L97.3,16.6z"/>
	<path class="st1" d="M122.4,29.2c0.1,1.8-0.3,3.3-1.2,4.4c-0.9,1.2-2.2,2-4.1,2.4l6.7,8.6l-3.5,0.2l-6.1-8.5l-3.8,0.2l0.5,8.8
		l-2.7,0.2L107,23.9l7.5-0.5c2.4-0.1,4.3,0.3,5.7,1.4S122.3,27.4,122.4,29.2z M115,34.4c1.6-0.1,2.8-0.6,3.6-1.4
		c0.8-0.8,1.1-1.9,1.1-3.2c-0.1-1.3-0.5-2.3-1.4-3c-0.9-0.7-2.1-1-3.6-0.9l-4.8,0.3l0.5,8.5L115,34.4z"/>
	<path class="st1" d="M128.1,22.6l2.7-0.2l1.3,21.6l-2.7,0.2L128.1,22.6z"/>
	<path class="st1" d="M137.6,22.1l13.3-0.8l0.1,2.3l-10.6,0.6l0.4,7.2l10-0.6l0.1,2.3l-10,0.6l0.4,7.3l10.6-0.6l0.1,2.4l-13.3,0.8
		L137.6,22.1z"/>
	<path class="st1" d="M160.1,20.7l11.8,16.7L170.8,20l2.7-0.2l1.3,21.6l-3,0.2l-11.9-16.9l1.1,17.6l-2.7,0.2l-1.3-21.6L160.1,20.7z"
		/>
	<path class="st1" d="M187.9,18.6c2.3-0.1,4.2,0.3,5.7,1.4c1.5,1.1,2.5,2.5,3.2,4.3l-2.9,0.8c-0.5-1.3-1.3-2.3-2.3-3.1
		c-1-0.7-2.2-1.1-3.5-1c-1.8,0.1-3.3,1-4.4,2.5c-1.1,1.6-1.6,3.7-1.4,6.4c0.2,2.7,0.8,4.8,2,6.4c1.2,1.6,2.8,2.3,4.8,2.1
		c1.7-0.1,3-0.6,4-1.6c0.9-1,1.4-2.2,1.3-3.7l2.9-0.2c0.1,2.3-0.5,4.1-2,5.5c-1.5,1.4-3.5,2.2-6.2,2.4c-2.7,0.2-4.9-0.7-6.7-2.7
		c-1.8-2-2.8-4.7-3-8.1c-0.2-3.5,0.5-6.2,2.1-8.2C183.1,19.9,185.2,18.8,187.9,18.6z"/>
	<path class="st1" d="M201.5,18.2l13.3-0.8l0.1,2.3l-10.6,0.6l0.4,7.2l10-0.6l0.1,2.3l-10,0.6l0.4,7.3l10.6-0.6l0.1,2.4l-13.3,0.8
		L201.5,18.2z"/>
</g>
<polygon class="st0" points="392.6,69.1 73.6,74.8 74.5,126.6 393.5,120.9 "/>
<g>
	<path class="st1" d="M103,91.3c1.3,1.2,1.9,2.8,2,4.8c0,2-0.6,3.7-1.8,4.9c-1.2,1.2-3,1.8-5.4,1.9l-4.3,0.1l0.2,8.4l-2.7,0.1
		l-0.4-21.6l7-0.1C99.9,89.6,101.8,90.2,103,91.3z M97.8,100.6c1.5,0,2.6-0.4,3.4-1.2c0.8-0.8,1.1-1.8,1.1-3.1
		c0-1.3-0.4-2.4-1.2-3.1c-0.8-0.8-1.9-1.2-3.4-1.1L93.3,92l0.2,8.6L97.8,100.6z"/>
	<path class="st1" d="M124.9,95.3c0,1.8-0.4,3.2-1.3,4.4c-0.9,1.1-2.3,1.9-4.2,2.2l6.4,8.9l-3.5,0.1l-5.8-8.7l-3.8,0.1l0.2,8.8
		l-2.7,0.1l-0.4-21.6l7.5-0.1c2.4,0,4.3,0.5,5.6,1.6C124.2,92.1,124.8,93.5,124.9,95.3z M117.2,100.2c1.6,0,2.9-0.4,3.7-1.3
		c0.8-0.8,1.2-1.9,1.2-3.1c0-1.3-0.5-2.3-1.3-3.1s-2-1.1-3.5-1.1l-4.8,0.1l0.2,8.6L117.2,100.2z"/>
	<path class="st1" d="M138.4,88.5c2.8-0.1,5.1,0.9,6.8,2.7c1.8,1.9,2.7,4.7,2.8,8.3c0.1,3.7-0.7,6.4-2.4,8.4c-1.7,1.9-3.9,2.9-6.8,3
		c-2.8,0.1-5.1-0.9-6.8-2.7c-1.7-1.9-2.6-4.6-2.7-8.3c-0.1-3.6,0.7-6.4,2.4-8.4C133.3,89.5,135.6,88.5,138.4,88.5z M138.4,90.9
		c-2,0-3.6,0.8-4.7,2.4c-1.1,1.5-1.7,3.7-1.6,6.6s0.7,5,1.9,6.4c1.2,1.4,2.8,2.1,4.8,2.1c2,0,3.6-0.8,4.8-2.3
		c1.2-1.5,1.7-3.7,1.6-6.5c-0.1-2.8-0.7-5-1.9-6.5C142.1,91.6,140.5,90.9,138.4,90.9z"/>
	<path class="st1" d="M153,88.6l13.1-0.2l0,2.3l-10.4,0.2l0.1,7.2l9.7-0.2l0,2.3l-9.7,0.2l0.2,9.8l-2.7,0.1L153,88.6z"/>
	<path class="st1" d="M170.9,88.2l13.3-0.3l0,2.3l-10.6,0.2l0.1,7.3l10-0.2l0,2.3l-10,0.2l0.1,7.4l10.6-0.2l0,2.4l-13.3,0.3
		L170.9,88.2z"/>
	<path class="st1" d="M201.9,92.9c-0.4-2.1-2-3.1-4.7-3.1c-1.4,0-2.5,0.4-3.3,1c-0.8,0.6-1.1,1.4-1.1,2.3c0,0.9,0.3,1.5,0.8,2
		c0.5,0.4,1.3,0.8,2.4,1.2l4.5,1.5c1.5,0.5,2.8,1.2,3.7,2.1c0.9,0.9,1.4,2.2,1.4,3.8c0,1.7-0.7,3.1-2.1,4.2
		c-1.4,1.2-3.3,1.8-5.7,1.8s-4.3-0.5-5.9-1.7c-1.5-1.2-2.4-2.8-2.5-5l2.6,0c0,1.4,0.5,2.5,1.6,3.2s2.3,1.1,3.9,1.1
		c1.6,0,2.8-0.4,3.7-1.1c0.9-0.7,1.3-1.5,1.3-2.5c0-1-0.3-1.7-0.9-2.2c-0.6-0.5-1.4-1-2.5-1.3l-3.8-1.3c-1.8-0.6-3.2-1.2-4.1-2.1
		c-0.9-0.8-1.4-2-1.4-3.6c0-1.6,0.6-2.9,1.9-4c1.3-1.1,3.1-1.7,5.4-1.7c2.3,0,4.1,0.4,5.3,1.4c1.2,1,2,2.4,2.2,4.1L201.9,92.9z"/>
	<path class="st1" d="M222.7,92.5c-0.4-2.1-2-3.1-4.7-3.1c-1.4,0-2.5,0.4-3.3,1s-1.1,1.4-1.1,2.3c0,0.9,0.3,1.5,0.8,2
		c0.5,0.4,1.3,0.8,2.4,1.2l4.5,1.5c1.5,0.5,2.8,1.2,3.7,2.1c0.9,0.9,1.4,2.2,1.4,3.8s-0.7,3.1-2.1,4.2c-1.4,1.2-3.3,1.8-5.7,1.8
		s-4.3-0.5-5.9-1.7c-1.5-1.2-2.4-2.8-2.4-5l2.6,0c0,1.4,0.5,2.5,1.6,3.2c1,0.7,2.3,1.1,3.9,1.1c1.6,0,2.8-0.4,3.7-1.1
		c0.9-0.7,1.3-1.5,1.3-2.5c0-1-0.3-1.7-0.9-2.2c-0.6-0.5-1.4-1-2.5-1.3l-3.8-1.3c-1.8-0.6-3.2-1.2-4.1-2.1c-0.9-0.8-1.4-2-1.4-3.6
		c0-1.6,0.6-2.9,1.9-4c1.3-1.1,3-1.7,5.4-1.7c2.3,0,4.1,0.4,5.3,1.4c1.2,1,2,2.4,2.2,4.1L222.7,92.5z"/>
	<path class="st1" d="M231.9,87.1l2.7-0.1l0.4,21.6l-2.7,0.1L231.9,87.1z"/>
	<path class="st1" d="M249.1,86.4c2.8-0.1,5.1,0.9,6.8,2.7c1.8,1.9,2.7,4.7,2.8,8.3c0.1,3.7-0.7,6.4-2.4,8.4c-1.7,1.9-3.9,2.9-6.8,3
		c-2.8,0.1-5.1-0.9-6.8-2.7c-1.7-1.9-2.6-4.6-2.7-8.3c-0.1-3.6,0.7-6.4,2.4-8.4C244.1,87.4,246.3,86.4,249.1,86.4z M249.2,88.8
		c-2,0-3.6,0.8-4.7,2.4c-1.1,1.5-1.7,3.7-1.6,6.6s0.7,5,1.9,6.4c1.2,1.4,2.8,2.1,4.8,2.1c2,0,3.6-0.8,4.8-2.3
		c1.2-1.5,1.7-3.7,1.6-6.5c-0.1-2.8-0.7-5-1.9-6.5C252.8,89.5,251.2,88.8,249.2,88.8z"/>
	<path class="st1" d="M266.9,86.4l11.1,17.2l-0.3-17.4l2.7-0.1l0.4,21.6l-3,0.1l-11.2-17.4l0.3,17.6l-2.7,0.1l-0.4-21.6L266.9,86.4z
		"/>
	<path class="st1" d="M290.4,86l11.1,17.2l-0.3-17.4l2.7-0.1l0.4,21.6l-3,0.1L290,90l0.3,17.6l-2.7,0.1L287.2,86L290.4,86z"/>
	<path class="st1" d="M310.8,85.6l13.3-0.3l0,2.3l-10.6,0.2l0.1,7.3l10-0.2l0,2.3l-10,0.2l0.1,7.4l10.6-0.2l0,2.4l-13.3,0.3
		L310.8,85.6z"/>
	<path class="st1" d="M333.2,104.4l9.6-0.2l0,2.4l-12.3,0.2l-0.4-21.6l2.7-0.1L333.2,104.4z"/>
	<path class="st1" d="M349.3,104.1l9.6-0.2l0,2.4l-12.3,0.2l-0.4-21.6l2.7-0.1L349.3,104.1z"/>
	<path class="st1" d="M362.3,84.6l13.3-0.3l0,2.3L365,86.9l0.1,7.3l10-0.2l0,2.3l-10,0.2l0.1,7.4l10.6-0.2l0,2.4l-13.3,0.3
		L362.3,84.6z"/>
</g>
</svg>
